<?xml version="1.0" encoding="utf-8"?><svg version="1.1" id="Layer_1" xmlns="http://www.w3.org/2000/svg" xmlns:xlink="http://www.w3.org/1999/xlink" x="0px" y="0px" viewBox="0 0 195 30" style="enable-background:new 0 0 195 30;" xml:space="preserve"><style type="text/css">.st0{fill:#FFFFFF;}</style><path class="st0" d="M14.2,10.8c0,1.4-0.3,2.3-0.8,2.9s-1.5,0.9-2.8,0.9H8V6.9h2.5c1.4,0,2.3,0.3,2.8,0.9C13.9,8.4,14.2,9.4,14.2,10.8z M21.7,10.8c0-3.8-0.9-6.4-2.6-7.9s-4.6-2.3-8.5-2.3h-9c-0.7,0-0.9,0.3-0.9,0.9v26.8c0,0.7,0.3,0.9,0.9,0.9h5.5C7.8,29.3,8,29,8,28.3v-7.8h2l0.1,0.2l3.7,7.7c0.3,0.6,0.8,0.9,1.5,0.9H21c0.5,0,0.5-0.2,0.6-0.2c0.1-0.2,0-0.5-0.1-0.8L17,19.8l-0.2-0.3l0.3-0.1l0.2-0.1C20.2,17.8,21.7,15,21.7,10.8z M33.5,28.3V1.6c0-0.7-0.3-0.9-0.9-0.9H27c-0.7,0-0.9,0.3-0.9,0.9v26.8c0,0.7,0.3,0.9,0.9,0.9h5.6C33.2,29.3,33.5,29,33.5,28.3z M52.1,15c0,3.1-0.3,5.1-1,6.2c-0.7,1.2-2,1.7-3.8,1.7h-1.6V7.1h1.4c1.8,0,3.1,0.6,3.8,1.7C51.7,9.9,52.1,11.9,52.1,15z M56.7,26.1c1.9-2.1,2.9-5.9,2.9-11.1s-1-9-2.9-11.1c-1.9-2.1-5.1-3.2-9.3-3.2h-8.2c-0.7,0-0.9,0.3-0.9,0.9v26.8c0,0.7,0.3,0.9,0.9,0.9h8.2C51.7,29.3,54.8,28.2,56.7,26.1z M71.4,28.3V1.6c0-0.7-0.3-0.9-0.9-0.9h-5.6C64.2,0.7,64,1,64,1.6v26.8c0,0.7,0.3,0.9,0.9,0.9h5.6C71.1,29.3,71.4,29,71.4,28.3z M90,20.4c0,1.1-0.2,1.9-0.7,2.4s-1.3,0.8-2.5,0.8h-3.3v-6.3h3.3c1.1,0,2,0.3,2.5,0.8C89.7,18.5,90,19.3,90,20.4z M89.3,9.1c0,1-0.2,1.7-0.7,2.2S87.3,12,86.3,12h-2.9V6.3h2.9c1.1,0,1.8,0.2,2.3,0.7C89.1,7.4,89.3,8.2,89.3,9.1z M92.9,14.2l-0.8-0.3l0.8-0.3l0.4-0.2c2.2-1,3.3-2.9,3.3-5.7c0-2.7-0.8-4.6-2.3-5.5c-1.6-1-4.2-1.6-7.7-1.6H77c-0.7,0-0.9,0.3-0.9,0.9v26.8c0,0.7,0.3,0.9,0.9,0.9h10.2c6.8,0,10.1-2.7,10.1-8.4c0-1.8-0.4-3.2-1.1-4.3s-1.7-1.8-2.9-2.3C93.3,14.2,92.9,14.2,92.9,14.2z M115.3,15c0,3.2-0.3,5.4-0.8,6.5c-0.6,1.3-1.6,1.9-2.9,1.9c-1.4,0-2.4-0.7-2.9-1.9c-0.5-1.1-0.8-3.3-0.8-6.5s0.3-5.4,0.8-6.5c0.5-1.3,1.6-1.9,2.9-1.9c1.4,0,2.4,0.7,2.9,1.9C115.1,9.6,115.3,11.8,115.3,15z M122.1,22.1c0.5-1.9,0.8-4.4,0.8-7.2s-0.3-5.2-0.8-7.2c-0.5-1.9-1.2-3.4-2.2-4.5s-2.1-1.9-3.4-2.4s-3-0.7-4.8-0.7c-1.9,0-3.5,0.2-4.8,0.7s-2.5,1.3-3.4,2.4c-1,1.1-1.7,2.6-2.2,4.5s-0.8,4.4-0.8,7.2s0.3,5.2,0.8,7.2c0.5,1.9,1.2,3.4,2.2,4.5s2.1,1.9,3.4,2.4s3,0.7,4.8,0.7c1.9,0,3.5-0.2,4.8-0.7s2.5-1.3,3.4-2.4C120.8,25.6,121.6,24,122.1,22.1z M140.6,15c0,3.2-0.3,5.4-0.8,6.5c-0.6,1.3-1.6,1.9-2.9,1.9c-1.4,0-2.4-0.7-2.9-1.9c-0.5-1.1-0.8-3.3-0.8-6.5s0.3-5.4,0.8-6.5c0.5-1.3,1.6-1.9,2.9-1.9c1.4,0,2.4,0.7,2.9,1.9C140.3,9.6,140.6,11.8,140.6,15z M147.3,22.1c0.5-1.9,0.8-4.4,0.8-7.2s-0.3-5.2-0.8-7.2c-0.5-1.9-1.2-3.4-2.2-4.5s-2.1-1.9-3.4-2.4c-1.3-0.5-3-0.7-4.8-0.7c-1.9,0-3.5,0.2-4.8,0.7s-2.5,1.3-3.4,2.4c-1,1.1-1.7,2.6-2.2,4.5s-0.8,4.4-0.8,7.2s0.3,5.2,0.8,7.2c0.5,1.9,1.2,3.4,2.2,4.5s2.1,1.9,3.4,2.4c1.3,0.5,3,0.7,4.8,0.7c1.9,0,3.5-0.2,4.8-0.7s2.5-1.3,3.4-2.4C146.1,25.6,146.8,24,147.3,22.1z M173.6,29c0.1-0.1,0.1-0.4-0.1-0.8l-7.2-14.6l-0.1-0.2l0.1-0.2l6.8-11.7c0.2-0.4,0.2-0.6,0.1-0.8c0-0.1-0.1-0.2-0.5-0.2h-5.9c-0.7,0-1.1,0.3-1.5,1l-5.1,9.1l-0.6,1.1V1.6c0-0.7-0.3-0.9-0.9-0.9h-5.6c-0.7,0-0.9,0.3-0.9,0.9v26.8c0,0.7,0.3,0.9,0.9,0.9h5.6c0.7,0,0.9-0.3,0.9-0.9v-13l0.6,1.3l5.5,11.5c0.3,0.7,0.8,1,1.5,1h5.9C173.5,29.3,173.6,29.1,173.6,29z M194.8,21.4c0-1.2-0.2-2.3-0.5-3.2c-0.3-0.9-0.8-1.7-1.5-2.3c-0.7-0.7-1.4-1.3-2.1-1.7c-0.7-0.4-1.7-1-2.9-1.7c-2.7-1.3-3.9-2.6-3.9-3.9c0-1,0.5-1.5,0.9-1.7c0.5-0.3,1.3-0.4,2.3-0.4c1.6,0,3.1,0.2,4.5,0.6c0.2,0,0.4,0.1,0.5,0.1c0.3,0,0.6-0.1,0.7-0.7l0.7-3.9c0.1-0.4,0-0.9-0.8-1.2c-1.8-0.7-4-1.1-6.7-1.1c-3.4,0-5.9,0.6-7.4,1.9c-1.5,1.2-2.3,3.3-2.3,6.1c0,1.3,0.2,2.5,0.5,3.6c0.4,1,0.9,1.9,1.6,2.6c0.7,0.7,1.4,1.3,2.1,1.8c0.7,0.5,1.6,0.9,2.6,1.4c1.5,0.8,2.5,1.4,3.1,1.9s0.9,1.1,0.9,1.8c0,1.5-1.4,2.3-4.3,2.3c-1.7,0-3.4-0.3-4.9-0.9c-0.2-0.1-0.4-0.1-0.6-0.1c-0.2,0-0.5,0-0.6,0.7l-0.7,4c-0.1,0.5,0,0.7,0,0.7c0.1,0.1,0.3,0.3,0.8,0.5c2.2,0.9,4.8,1.3,7.9,1.3c2.9,0,5.3-0.7,7.2-2.1C193.9,26.3,194.8,24.2,194.8,21.4z"/></svg>